<?xml version="1.0" encoding="UTF-8" standalone="no"?>
<svg
   xmlns:sketch="http://www.bohemiancoding.com/sketch/ns"
   xmlns:dc="http://purl.org/dc/elements/1.1/"
   xmlns:cc="http://creativecommons.org/ns#"
   xmlns:rdf="http://www.w3.org/1999/02/22-rdf-syntax-ns#"
   xmlns:svg="http://www.w3.org/2000/svg"
   xmlns="http://www.w3.org/2000/svg"
   xmlns:sodipodi="http://sodipodi.sourceforge.net/DTD/sodipodi-0.dtd"
   xmlns:inkscape="http://www.inkscape.org/namespaces/inkscape"
   width="111"
   height="180"
   viewBox="0 0 111 180"
   version="1.1"
   id="svg32"
   sodipodi:docname="logo.svg"
   inkscape:export-filename="C:\Users\Kenny\Documents\bitshares-site\site\src\assets\logo.png"
   inkscape:export-xdpi="30.270269"
   inkscape:export-ydpi="30.270269"
   inkscape:version="0.92.3 (2405546, 2018-03-11)">
  <metadata
     id="metadata36">
    <rdf:RDF>
      <cc:Work
         rdf:about="">
        <dc:format>image/svg+xml</dc:format>
        <dc:type
           rdf:resource="http://purl.org/dc/dcmitype/StillImage" />
        <dc:title>Logo BitShares Blue - 1 color</dc:title>
      </cc:Work>
    </rdf:RDF>
  </metadata>
  <sodipodi:namedview
     pagecolor="#ffffff"
     bordercolor="#666666"
     borderopacity="1"
     objecttolerance="10"
     gridtolerance="10"
     guidetolerance="10"
     inkscape:pageopacity="0"
     inkscape:pageshadow="2"
     inkscape:window-width="1366"
     inkscape:window-height="705"
     id="namedview34"
     showgrid="false"
     fit-margin-top="0"
     fit-margin-left="0"
     fit-margin-right="0"
     fit-margin-bottom="0"
     inkscape:zoom="0.5308642"
     inkscape:cx="279"
     inkscape:cy="176.21081"
     inkscape:window-x="-8"
     inkscape:window-y="-8"
     inkscape:window-maximized="1"
     inkscape:current-layer="Logo-BitShares-Blue---1-color" />
  <!-- Generator: Sketch 3.2 (9961) - http://www.bohemiancoding.com/sketch -->
  <title
     id="title2">Logo BitShares Blue - 1 color</title>
  <desc
     id="desc4">Created with Sketch.</desc>
  <defs
     id="defs6" />
  <g
     id="Logo-&amp;-Variants"
     sketch:type="MSPage"
     style="fill:none;fill-rule:evenodd;stroke:none;stroke-width:1"
     transform="translate(-45,-33.705317)">
    <g
       id="Logo-BitShares-Blue---1-color"
       sketch:type="MSArtboardGroup"
       transform="translate(0,0.705317)">
      <g
         id="Imported-Layers"
         sketch:type="MSLayerGroup"
         transform="translate(46,44)" />
      <path
         id="Shape-3"
         sketch:type="MSShapeGroup"
         d=""
         inkscape:connector-curvature="0" />
      <path
         d="M 84,145.41168 45,107 v 46 H 80.670732 C 81.28223,150.24671 82.437282,147.62774 84,145.41168 Z"
         id="Shape-13"
         sketch:type="MSShapeGroup"
         inkscape:connector-curvature="0"
         style="fill:#00a9e0" />
      <path
         d="M 80.931818,161 H 45 c 0.818182,12.58763 5.863636,23.95051 13.704546,33 L 84,168.7567 C 82.568182,166.37526 81.409091,163.78969 80.931818,161 Z"
         id="Shape-14"
         sketch:type="MSShapeGroup"
         inkscape:connector-curvature="0"
         style="fill:#00a9e0" />
      <path
         d="M 137,115.70454 C 128.0866,107.93182 116.65567,102.88636 104,102 v 35.79545 c 2.85773,0.54546 5.37526,1.56819 7.55258,3.20455 z"
         id="Shape-15"
         sketch:type="MSShapeGroup"
         inkscape:connector-curvature="0"
         style="fill:#00a9e0" />
      <path
         d="M 117,167.97694 141.95422,193 C 149.38028,184.21174 154.06338,173.20964 155,161 h -35.12324 c -0.66901,2.61635 -1.53873,4.89727 -2.87676,6.97694 z"
         id="Shape-16"
         sketch:type="MSShapeGroup"
         inkscape:connector-curvature="0"
         style="fill:#00a9e0" />
      <path
         d="M 120.20454,153 H 156 c -0.81818,-12.58763 -5.86364,-23.95052 -13.70455,-33 L 117,145.2433 c 1.5,2.38144 2.59091,5.03505 3.20454,7.7567 z"
         id="Shape-17"
         sketch:type="MSShapeGroup"
         inkscape:connector-curvature="0"
         style="fill:#00a9e0" />
      <path
         d="M 64,199.29545 C 72.913402,207.06818 84.34433,212.11364 97,213 V 177.20454 C 94.142268,176.65909 91.624742,175.63636 89.447423,174 Z"
         id="Shape-18"
         sketch:type="MSShapeGroup"
         inkscape:connector-curvature="0"
         style="fill:#00a9e0" />
      <path
         d="M 105,177.20454 V 213 c 12.65567,-0.81818 24.0866,-5.93182 33,-13.70455 L 112.82474,174 c -2.44948,1.63636 -5.03505,2.65909 -7.82474,3.20454 z"
         id="Shape-19"
         sketch:type="MSShapeGroup"
         inkscape:connector-curvature="0"
         style="fill:#00a9e0" />
      <path
         d="M 45.136126,95.26439 C 54.732984,104.80708 84.884817,134.9241 89.921466,140 92.099476,138.78178 94.34555,137.69892 97,137.15749 V 78.886148 L 45,33 c 0,0.06768 0.136126,60.843137 0.136126,62.26439 z"
         id="Shape-20"
         sketch:type="MSShapeGroup"
         inkscape:connector-curvature="0"
         style="fill:#00a9e0" />
    </g>
  </g>
</svg>
